<svg xmlns:dc="http://purl.org/dc/elements/1.1/" xmlns:cc="http://creativecommons.org/ns#" xmlns:rdf="http://www.w3.org/1999/02/22-rdf-syntax-ns#" xmlns:svg="http://www.w3.org/2000/svg" xmlns="http://www.w3.org/2000/svg" viewBox="0 0 762 762" fill="none"><metadata><rdf:RDF><cc:Work><dc:format>image/svg+xml</dc:format><dc:type rdf:resource="http://purl.org/dc/dcmitype/StillImage"/><dc:title>Adventurer</dc:title><dc:creator><cc:Agent><dc:title>Lisa Wischofsky</dc:title></cc:Agent></dc:creator><dc:source>https://www.instagram.com/lischis_adventures/</dc:source><cc:license rdf:resource="https://creativecommons.org/licenses/by/4.0/"/></cc:Work><cc:License rdf:about="https://creativecommons.org/licenses/by/4.0/"><cc:permits rdf:resource="https://creativecommons.org/ns#Reproduction"/><cc:permits rdf:resource="https://creativecommons.org/ns#Distribution"/><cc:permits rdf:resource="https://creativecommons.org/ns#DerivativeWorks"/><cc:requires rdf:resource="https://creativecommons.org/ns#Notice"/><cc:requires rdf:resource="https://creativecommons.org/ns#Attribution"/></cc:License></rdf:RDF></metadata><mask id="avatarsRadiusMask"><rect width="762" height="762" rx="0" ry="0" x="0" y="0" fill="#fff"/></mask><g mask="url(#avatarsRadiusMask)"><rect fill="#EF6817" width="762" height="762" x="0" y="0"/><path d="M396.01 164.85c37.82 4.9 74.21 19.64 104.8 42.39 6.15 4.84 12.48 9.33 18.02 14.92 23.77 21.98 42.73 49.02 55.13 78.95 9.35 22.31 14.72 46.04 16.64 70.14 6.62.81 13.05 2.14 19.12 5 15.54 6.93 27.08 20.94 31.78 37.21 2.63 9.56 3.56 19.75 1.72 29.55-2.96 18.76-13.72 36.13-29.37 46.92-10.94 7.65-24.49 12.03-37.86 11.68-5.13-.05-10.04-1.6-15.13-1.79-1.85 2.17-3.23 4.84-4.76 7.25-18.66 29.62-44.57 54.51-74.64 72.4-28.1 16.73-59.9 27.16-92.46 30.32-11.08.7-21.87 2.05-32.98.74-51.69-2.3-102.07-23.44-140.15-58.43-29.03-26.55-50.84-60.83-62.54-98.39-7.09-22.85-10.62-46.78-10.07-70.71.52-40.34 12.53-80.58 33.94-114.76 19.1-30.81 45.91-56.58 77.2-74.83 29.63-17.28 63.35-27.68 97.59-29.87 14.66-1.47 29.44-.37 44.02 1.31Z" fill="#000"/><path d="M363 169.06c48.47-1.39 97.32 14.7 135.81 44.12 6.55 4.06 11.72 9.49 17.36 14.64 24.33 22.63 43.2 50.95 54.93 82.02 7.43 19.61 11.86 40.2 13.56 61.09-8.89.74-17.34 2.34-25.38 6.38-2.19 1.03-1.89 4.95.68 5.23 2.35.23 4.98-1.51 7.24-2.2 14.62-5.37 31.32-4.35 44.78 3.68 11.69 6.78 20.09 18.16 23.89 31.06 2.6 8.25 2.68 17.41 1.76 25.95-2.5 17.35-12.35 33.73-26.73 43.81-15.71 11.33-37.17 14.64-54.93 6.2-3.17-1.43-5.94-3.58-9.08-5.05-2.95-1.09-4.88 2.79-2.7 4.75 3.17 2.76 7.34 4.52 11 6.56-20.14 34.15-49.45 62.7-84.41 81.47-30.2 16.31-64.44 25.53-98.78 26.15-27.63.72-55.33-4.04-81.21-13.72-30.32-11.24-57.84-29.43-80.37-52.6-22.67-23.37-39.92-51.88-50.2-82.77-14.96-44.64-14.91-94.01.27-138.59 11.05-33.06 30.28-63.21 55.37-87.39 29.67-28.73 67.65-48.54 108.13-56.67 12.8-2.52 25.94-4.24 39.01-4.12Z" fill="rgba(242, 211, 177, 1)"/><path d="M605.03 404.4c2.63-.1 3.44 3.8 1.36 4.98-3.69 1.83-7.82 2.77-11.64 4.35-5.82 2.04-11.28 4.76-16.68 7.72 4.29 2.34 8.86 4.74 12.71 7.76 2.58 2.09 4.85 4.35 5.33 7.8-.26 3.59-2.73 6.55-5.45 8.69-5.86 4.66-13.92 7.18-20.79 10.26-1.75.62-4.43 1.99-5.59-.26-1.02-1.74-.06-3.11 1.57-3.87 6.65-3.3 14.86-5.62 20.79-10.16 1.37-1.14 3.39-2.74 3.61-4.62-4.07-5.63-12.42-8.59-18.23-12.09-2.34-1.72-2.29-4.24-.16-6.13 7.27-5.64 16.98-9.26 25.57-12.38 2.42-.83 5.03-1.95 7.6-2.05Z" fill="#000"/><g transform="translate(-161 -83)"><path d="M551.26 424.28c22.14-1.95 44.44 7.9 57.71 25.75 8.64 11.47 13.27 25.62 13.2 39.97-.27 12.75-4.02 25.34-11.26 35.89-8.84 13.09-22.73 23-38.11 26.7-16.24 4.16-34.1 1.72-48.57-6.76a65.054 65.054 0 0 1-24.72-25.38c-7.13-12.81-9.27-27.78-6.97-42.19 2.31-13.58 8.97-26.26 18.91-35.81a65.285 65.285 0 0 1 39.81-18.17Z" fill="#000"/><path d="M549.27 430.26c15.88-1.96 31.69 2.29 44.29 12.15 14.44 11.15 23.28 29.32 22.8 47.59.05 22.95-14.44 44.84-35.55 53.82-10.61 4.63-22.39 6.3-33.81 4.22-16.4-2.64-31.49-12.63-40.35-26.68-5.6-8.77-8.74-18.94-9.37-29.31-.6-14.46 4.23-29.16 13.41-40.36 9.45-11.75 23.64-19.57 38.58-21.43Z" fill="#fff"/><path d="M381.25 447.09c11.52-1.18 23.47 1.35 33.46 7.24 12.25 7.09 21.47 19.09 25.21 32.74 3.15 11.43 2.54 23.97-1.86 34.99-4.67 11.91-13.64 22.02-24.9 28.09-10.04 5.45-21.85 7.71-33.18 6.15-15.78-1.82-30.34-11-39-24.28-5.54-8.32-8.46-18.03-9.11-27.97-.31-12.55 3.41-25.11 10.99-35.17 9.06-12.23 23.25-20.25 38.39-21.79Z" fill="#000"/><path d="M378.26 453.29c11.25-2.04 22.9-.02 32.85 5.6 17.73 9.81 28.17 31.02 24.42 51.03-1.74 10.34-6.78 19.99-14.36 27.25-8.1 7.95-18.9 12.75-30.17 13.77-20.15 1.85-40.17-9.84-48.64-28.18-7.75-16.18-5.75-36.01 5.04-50.33 7.38-10.04 18.61-16.93 30.86-19.14Z" fill="#fff"/><path d="M526.47 467.49c12.02-2.86 24.89 4.24 29.36 15.65 2.21 6 2.32 12.7-.08 18.66-3.15 8.33-10.9 14.62-19.7 15.97-8.11 1.41-16.74-1.45-22.47-7.35-6.99-7.09-9.21-18.1-5.46-27.34 3.06-7.95 10.06-13.77 18.35-15.59ZM398.26 478.35c12.27-2.56 24.75 5.81 27.12 18.08.66 5.63.55 11.35-2.68 16.22-4.79 8.01-14.36 12.76-23.63 11.14-10.66-1.71-18.99-10.97-19.33-21.79-.63-11.26 7.45-21.53 18.52-23.65Z" fill="#000"/></g><g transform="translate(-161 -83)"><g fill="#000"><path d="M501.99 384.96c9.91.12 19.87 3.23 28.83 7.31 3.36 1.88 7.05 4.01 7.31 8.29-5.14-.86-10.14-2.06-15.38-2.28-11.6-.68-23.13 1.36-33.25 7.23-2.54 1.41-4.95 3.26-7.64 4.35-1.8.27-3.92-1.99-3.94-3.73-.18-5.81 1.95-11.92 6.53-15.7 5.03-4.23 11.15-5.3 17.54-5.47ZM414.03 402.61c5.81.15 10.93 5.3 12.51 10.64.8 2.63-.46 5.72-3.53 5.61-8.82.21-18.21.03-26.81 2.26-7.52 2.01-14.74 6.71-21.36 10.74-1.22.81-2.57.96-3.98 1.22.33-1.93.64-3.66 1.94-5.21 3.28-4.33 6.78-8.58 10.74-12.3 5.88-5.17 13.01-8.96 20.32-11.66 3.23-1.11 6.76-1.58 10.17-1.3Z"/></g></g><g transform="translate(-161 -83)"><path d="M521.18 567.25c1.55-.38 3.33-1 4.93-.74 2 .78 2.03 3.01 1.04 4.64-4.12 2.62-10 2.81-14.26 4.89 3.42 13.46 3.76 27.49.01 40.93-3.27 12.19-10.22 24.02-20.72 31.3-7.05 4.98-15.6 7.41-24.21 6.54-11.52-1.1-21.7-8.19-28.53-17.28-9.5-12.6-13.35-27.92-13.48-43.53.34-5.62.98-11.21 2.11-16.73-2.4-.78-5.59-1.13-7.5-2.84-.56-1.23-.2-2.85-.25-4.18 4.52-.02 8.3 1.66 12.66 2.56 29.55 5.95 59.49 3.04 88.2-5.56Z" fill="#000"/><path d="M506.94 577.11c5.23 17.71 3.27 38.43-6.69 54.17-4.13 6.48-9.68 11.96-16.73 15.17-7.99 3.73-17.56 3.43-25.4-.56-8.06-4.01-14.57-11.41-18.7-19.31-7.58-14.67-9.44-32.01-5.52-48.03 10.46 2.49 21.07 3.05 31.77 3.27-1 6.74-.96 13.39-1.18 20.18.01 1.91-.16 4.09.49 5.92 1.1 1.71 4.66 1.2 4.76-1.06.58-8.41-.13-16.75 1.51-25.13 11.98-.25 23.98-2.21 35.69-4.62Z" fill="#EA869E"/></g><g transform="translate(-161 -83)"/><g transform="translate(-161 -83)"><path d="M659.42 36.42c1.88-.59 3.59-1.19 5.56-.58.87.92 1.68 1.9 2.44 2.93-3.42 5.06-6.01 10.48-8.69 15.95-12.22 25.23-20.41 54.18-19.54 82.36 14.8-1.49 29.92-1.55 44.81-1.19 20.39.41 40.21 3.24 60.24 6.83 1.95.42 3.48 1.07 3.69 3.29.11 3.07-2.87 3.52-4.95 5-11.35 6.77-21.47 15.87-30.98 24.99-15.02 14.51-26.84 32.82-36.53 51.22 30.01 5.2 58.94 19.94 83.13 38.16 2 1.54 4.54 3.24 5.72 5.51-.49 4.16-4.62 4.34-7.75 5.73-19.34 6.6-36.87 16.49-54.05 27.41 12.87 7.93 25.13 16.95 36.31 27.14 1.62 1.69 3.56 3.07 3.01 5.72-.17 1.85-2.91 2.88-4.35 3.62-7.78 3.39-15.78 6.43-23.83 9.12-2.25.76-3.23-.07-4.44-1.88-10.35-16.7-24.88-31.41-39.8-44.08-12.12-10.19-25.26-19.49-39.34-26.76-2.63-1.31-5.02-2.57-8.04-2.55-5.66 0-11.38.22-17.04.52-31.98 2.5-63.58 10.35-92.98 23.17-15.63 6.95-31.29 15.52-44.41 26.58-2.06 1.61-4.08 4.07-6.59 4.91-5.84-.87-11.53-3.37-17.05-5.39-18.8-6.99-35.07-19.92-48.92-34.17-11.07-10.95-20.32-23.26-28.72-36.33-6.21-9.48-11.98-19.09-16.47-29.52-1.35-3.24-3.13-6.64-3.66-10.13.03-1.27 1.24-3.6 2.76-3.18 3.12 1 5.98 2.84 8.97 4.18 5.95 2.87 12.19 4.68 18.56 6.35 12.07 3.37 24.58 5.79 36.9 8.26-1.22-7.7-1.19-15.42-.84-23.18 1.36-21.95 7.11-43.14 15.36-63.45 6.36-15.81 14.59-30.82 24.27-44.83 10.5-15.13 22.52-29.48 36.6-41.4 2.59-1.92 5.45-4.42 8.73-2.24 2.16.95 1.11 3.69.98 5.48-3.73 17.06-.34 34.65 4.34 51.17 2.58 9.3 6.68 17.9 10.94 26.53 3.57-4.73 7.39-9.12 11.56-13.33 20.76-21 45.01-39.18 69.72-55.27 20.28-12.69 41.84-24.51 64.37-32.67Z" fill="#000"/><path d="M658.74 42.89c-13.93 25.15-23.31 52.27-25.15 81.11-.23 5.43-.08 10.88-.11 16.31 1.06.84 2.06 2.5 3.49 2.48 6.34-.46 12.64-1.45 19.03-1.47 11.29.01 22.53-.29 33.8.65 16.34.46 32.31 2.84 48.39 5.6-14.22 9.19-27.15 20.55-38.6 32.99-11.62 13.42-21.35 28.79-29.59 44.49-.84 1.79-2.11 3.88-1 5.83 1.09 1.27 2.48 1.14 4 1.45 6.07.75 11.98 2.28 17.81 4.11 23.61 7.44 45.88 19.46 65.48 34.54-7.37 2.62-14.68 5.33-21.78 8.63-11.78 5.22-23.15 12-34.08 18.82-2.3 1.72-7.83 3.98-5.62 7.67 3.14 1.96 6.6 3.32 9.63 5.48 10.61 7.16 20.98 14.93 30.25 23.78-6.92 3.08-14.03 5.65-21.17 8.19-10.01-15.57-22.53-28.52-36.26-40.81-14.82-12.9-31-24.61-48.78-33.08-2.07-1.03-4.22-1.1-6.48-1.07-37.47.07-74.99 8.41-109.48 22.91-19.05 8.2-37.07 18.24-52.66 32.05-6.1-1.86-12.09-4.07-17.98-6.52-11.45-4.89-21.52-11.87-30.92-19.97-12.08-10.66-23.1-22.44-32.36-35.65-9.32-13.5-18.34-26.55-24.8-41.73 18.11 8.03 38.79 11.36 58.18 15.01 2.62.06 6.37 1.91 7.43-1.52-.16-2.73-.85-5.43-1.16-8.15-1.38-9.74-.01-20.28 1.14-30.04 5.2-33.79 18.61-66.43 38.2-94.43 10.21-14.56 21.56-28.03 35.14-39.59-1.4 8.92-1.38 18.06-.6 27.04 1.98 16.19 6.47 32.3 13.82 46.91 1.72 3.24 3.05 6.96 5.36 9.82 1.05 1.28 3.52 1.71 4.41.03 5.22-8.96 12.75-15.69 20.2-22.87 19.17-17.78 40.21-33.6 62.13-47.81 19.22-12.03 39.43-23.2 60.69-31.19Z" fill="rgba(229, 215, 163, 1)"/></g></g></svg>